<svg xmlns="http://www.w3.org/2000/svg" xmlns:xlink="http://www.w3.org/1999/xlink" id="Camada_1" x="0px" y="0px" viewBox="0 0 1759.37 652.99" style="enable-background:new 0 0 1759.37 652.99;" xml:space="preserve"><style type="text/css">	.st0{fill:url(#SVGID_1_);}	.st1{fill:url(#SVGID_00000056420511227209572780000004445396513170916543_);}	.st2{clip-path:url(#SVGID_00000124162197566464936220000009888095648360895154_);fill:#F7A904;}	.st3{clip-path:url(#SVGID_00000124162197566464936220000009888095648360895154_);fill:#F7AA04;}	.st4{clip-path:url(#SVGID_00000124162197566464936220000009888095648360895154_);fill:#F7AB04;}	.st5{clip-path:url(#SVGID_00000124162197566464936220000009888095648360895154_);fill:#F7AC04;}	.st6{clip-path:url(#SVGID_00000124162197566464936220000009888095648360895154_);fill:#F8AE03;}	.st7{clip-path:url(#SVGID_00000124162197566464936220000009888095648360895154_);fill:#F8AF03;}	.st8{clip-path:url(#SVGID_00000124162197566464936220000009888095648360895154_);fill:#F8B003;}	.st9{clip-path:url(#SVGID_00000124162197566464936220000009888095648360895154_);fill:#F8B103;}	.st10{clip-path:url(#SVGID_00000124162197566464936220000009888095648360895154_);fill:#F8B203;}	.st11{clip-path:url(#SVGID_00000124162197566464936220000009888095648360895154_);fill:#F8B303;}	.st12{clip-path:url(#SVGID_00000124162197566464936220000009888095648360895154_);fill:#F9B402;}	.st13{clip-path:url(#SVGID_00000124162197566464936220000009888095648360895154_);fill:#F9B502;}	.st14{clip-path:url(#SVGID_00000124162197566464936220000009888095648360895154_);fill:#F9B602;}	.st15{clip-path:url(#SVGID_00000124162197566464936220000009888095648360895154_);fill:#F9B702;}	.st16{clip-path:url(#SVGID_00000124162197566464936220000009888095648360895154_);fill:#F9B802;}	.st17{clip-path:url(#SVGID_00000124162197566464936220000009888095648360895154_);fill:#F9BA02;}	.st18{clip-path:url(#SVGID_00000124162197566464936220000009888095648360895154_);fill:#F9BB02;}	.st19{clip-path:url(#SVGID_00000124162197566464936220000009888095648360895154_);fill:#FABC01;}	.st20{clip-path:url(#SVGID_00000124162197566464936220000009888095648360895154_);fill:#FABD01;}	.st21{clip-path:url(#SVGID_00000124162197566464936220000009888095648360895154_);fill:#FABE01;}	.st22{clip-path:url(#SVGID_00000124162197566464936220000009888095648360895154_);fill:#FABF01;}	.st23{clip-path:url(#SVGID_00000124162197566464936220000009888095648360895154_);fill:#FAC001;}	.st24{clip-path:url(#SVGID_00000124162197566464936220000009888095648360895154_);fill:#FAC101;}	.st25{clip-path:url(#SVGID_00000124162197566464936220000009888095648360895154_);fill:#FAC201;}	.st26{clip-path:url(#SVGID_00000124162197566464936220000009888095648360895154_);fill:#FBC300;}	.st27{clip-path:url(#SVGID_00000124162197566464936220000009888095648360895154_);fill:#FBC400;}	.st28{clip-path:url(#SVGID_00000124162197566464936220000009888095648360895154_);fill:#FBC500;}	.st29{clip-path:url(#SVGID_00000124162197566464936220000009888095648360895154_);fill:#FBC600;}	.st30{clip-path:url(#SVGID_00000068667632514587560940000015810227606363798968_);fill:#F7AA17;}	.st31{clip-path:url(#SVGID_00000068667632514587560940000015810227606363798968_);fill:#F7A918;}	.st32{clip-path:url(#SVGID_00000068667632514587560940000015810227606363798968_);fill:#F7A819;}	.st33{clip-path:url(#SVGID_00000068667632514587560940000015810227606363798968_);fill:#F6A71A;}	.st34{clip-path:url(#SVGID_00000068667632514587560940000015810227606363798968_);fill:#F6A61B;}	.st35{clip-path:url(#SVGID_00000068667632514587560940000015810227606363798968_);fill:#F6A41C;}	.st36{clip-path:url(#SVGID_00000068667632514587560940000015810227606363798968_);fill:#F6A31D;}	.st37{clip-path:url(#SVGID_00000068667632514587560940000015810227606363798968_);fill:#F6A21D;}	.st38{clip-path:url(#SVGID_00000068667632514587560940000015810227606363798968_);fill:#F6A11E;}	.st39{clip-path:url(#SVGID_00000068667632514587560940000015810227606363798968_);fill:#F5A01F;}	.st40{clip-path:url(#SVGID_00000068667632514587560940000015810227606363798968_);fill:#F59F20;}	.st41{clip-path:url(#SVGID_00000068667632514587560940000015810227606363798968_);fill:#F59E21;}	.st42{clip-path:url(#SVGID_00000068667632514587560940000015810227606363798968_);fill:#F59D22;}	.st43{clip-path:url(#SVGID_00000068667632514587560940000015810227606363798968_);fill:#F59C23;}	.st44{clip-path:url(#SVGID_00000068667632514587560940000015810227606363798968_);fill:#F49B24;}	.st45{clip-path:url(#SVGID_00000068667632514587560940000015810227606363798968_);fill:#F49A25;}	.st46{clip-path:url(#SVGID_00000068667632514587560940000015810227606363798968_);fill:#F49926;}	.st47{clip-path:url(#SVGID_00000068667632514587560940000015810227606363798968_);fill:#F49726;}	.st48{clip-path:url(#SVGID_00000068667632514587560940000015810227606363798968_);fill:#F49627;}	.st49{clip-path:url(#SVGID_00000068667632514587560940000015810227606363798968_);fill:#F49528;}	.st50{clip-path:url(#SVGID_00000068667632514587560940000015810227606363798968_);fill:#F39429;}	.st51{clip-path:url(#SVGID_00000068667632514587560940000015810227606363798968_);fill:#F3932A;}	.st52{clip-path:url(#SVGID_00000068667632514587560940000015810227606363798968_);fill:#F3922B;}	.st53{clip-path:url(#SVGID_00000068667632514587560940000015810227606363798968_);fill:#F3912C;}	.st54{clip-path:url(#SVGID_00000068667632514587560940000015810227606363798968_);fill:#F3902C;}	.st55{clip-path:url(#SVGID_00000068667632514587560940000015810227606363798968_);fill:#F38F2D;}	.st56{clip-path:url(#SVGID_00000068667632514587560940000015810227606363798968_);fill:#F28F2E;}	.st57{clip-path:url(#SVGID_00000068667632514587560940000015810227606363798968_);fill:#F28E2F;}	.st58{clip-path:url(#SVGID_00000068667632514587560940000015810227606363798968_);fill:#F28D2F;}	.st59{clip-path:url(#SVGID_00000068667632514587560940000015810227606363798968_);fill:#F28C30;}	.st60{clip-path:url(#SVGID_00000067945156517060455870000012296040898274072466_);fill:#F6A918;}	.st61{clip-path:url(#SVGID_00000067945156517060455870000012296040898274072466_);fill:#F6A819;}	.st62{clip-path:url(#SVGID_00000067945156517060455870000012296040898274072466_);fill:#F6A71A;}	.st63{clip-path:url(#SVGID_00000067945156517060455870000012296040898274072466_);fill:#F6A61B;}	.st64{clip-path:url(#SVGID_00000067945156517060455870000012296040898274072466_);fill:#F5A51C;}	.st65{clip-path:url(#SVGID_00000067945156517060455870000012296040898274072466_);fill:#F5A31D;}	.st66{clip-path:url(#SVGID_00000067945156517060455870000012296040898274072466_);fill:#F5A21E;}	.st67{clip-path:url(#SVGID_00000067945156517060455870000012296040898274072466_);fill:#F5A11E;}	.st68{clip-path:url(#SVGID_00000067945156517060455870000012296040898274072466_);fill:#F5A01F;}	.st69{clip-path:url(#SVGID_00000067945156517060455870000012296040898274072466_);fill:#F59F20;}	.st70{clip-path:url(#SVGID_00000067945156517060455870000012296040898274072466_);fill:#F49E21;}	.st71{clip-path:url(#SVGID_00000067945156517060455870000012296040898274072466_);fill:#F49D22;}	.st72{clip-path:url(#SVGID_00000067945156517060455870000012296040898274072466_);fill:#F49C23;}	.st73{clip-path:url(#SVGID_00000067945156517060455870000012296040898274072466_);fill:#F49B24;}	.st74{clip-path:url(#SVGID_00000067945156517060455870000012296040898274072466_);fill:#F49A25;}	.st75{clip-path:url(#SVGID_00000067945156517060455870000012296040898274072466_);fill:#F49926;}	.st76{clip-path:url(#SVGID_00000067945156517060455870000012296040898274072466_);fill:#F49826;}	.st77{clip-path:url(#SVGID_00000067945156517060455870000012296040898274072466_);fill:#F39627;}	.st78{clip-path:url(#SVGID_00000067945156517060455870000012296040898274072466_);fill:#F39528;}	.st79{clip-path:url(#SVGID_00000067945156517060455870000012296040898274072466_);fill:#F39429;}	.st80{clip-path:url(#SVGID_00000067945156517060455870000012296040898274072466_);fill:#F3932A;}	.st81{clip-path:url(#SVGID_00000067945156517060455870000012296040898274072466_);fill:#F3922B;}	.st82{clip-path:url(#SVGID_00000067945156517060455870000012296040898274072466_);fill:#F3912C;}	.st83{clip-path:url(#SVGID_00000067945156517060455870000012296040898274072466_);fill:#F3902C;}	.st84{clip-path:url(#SVGID_00000067945156517060455870000012296040898274072466_);fill:#F28F2D;}	.st85{clip-path:url(#SVGID_00000067945156517060455870000012296040898274072466_);fill:#F28F2E;}	.st86{clip-path:url(#SVGID_00000067945156517060455870000012296040898274072466_);fill:#F28E2F;}	.st87{clip-path:url(#SVGID_00000067945156517060455870000012296040898274072466_);fill:#F28D2F;}	.st88{clip-path:url(#SVGID_00000067945156517060455870000012296040898274072466_);fill:#F28C30;}	.st89{fill:#282826;}</style><g>	<g>		<linearGradient id="SVGID_1_" gradientUnits="userSpaceOnUse" x1="255.9109" y1="171.7549" x2="425.5908" y2="171.7549">			<stop offset="0.1552" style="stop-color:#F9B90B"></stop>			<stop offset="1" style="stop-color:#F5A21D"></stop>		</linearGradient>		<path class="st0" d="M302.91,296.18c-10.27,0-19.18-2.31-26.03-7.21c-24.7-17.68-22.34-59.97-18.74-72.55   c9.13-31.96,23.23-60.12,41.89-83.69c40.19-50.76,88.6-75.29,113.89-85.4l7.82,19.56c-18.79,7.51-66.65,30.24-105.19,78.91   c-16.95,21.41-29.79,47.11-38.15,76.41c-2.4,8.39-3.72,39.28,10.75,49.63c16.54,11.84,74.61-7.11,120.93-57.54l15.52,14.25   C387.6,269.92,337.56,296.18,302.91,296.18z"></path>	</g>	<g>					<linearGradient id="SVGID_00000160148130774047446560000017108768411170192784_" gradientUnits="userSpaceOnUse" x1="30.5149" y1="337.799" x2="627.6798" y2="337.799">			<stop offset="0" style="stop-color:#F7A904"></stop>			<stop offset="0.0326" style="stop-color:#F8B303"></stop>			<stop offset="0.0988" style="stop-color:#FAC101"></stop>			<stop offset="0.1552" style="stop-color:#FBC600"></stop>			<stop offset="1" style="stop-color:#F28C30"></stop>		</linearGradient>		<path style="fill:url(#SVGID_00000160148130774047446560000017108768411170192784_);" d="M234.27,621.9   c-33.46,0-52.04-16.57-61.88-31.02c-20.97-30.8-20.97-79.2-0.01-123.3l0.41-0.87c5.62-11.83,19.54-41.15,46.18-72.38   c-33.25-22.05-88.48-58.86-136.28-126.82l17.23-12.12c45.78,65.08,97.2,99.17,131.22,121.74c0.76,0.5,1.51,1,2.25,1.49   c6.65-6.74,13.92-13.45,21.86-19.97c5.15-4.23,11.21-8.47,17.96-12.57c-11.52-27.5-28.63-63.12-54.79-102.7   c-6.33-0.87-12.82-1.92-19.51-3.17c-25.81-4.83-112.88-24.41-149.73-73.55c-9.92-13.23-25.84-43.93-15.08-65.44   c4.29-8.58,14.41-18.82,38.25-18.82c33.58,0,58.83,14.01,128.3,100.85c11.01,13.76,20.94,27.27,29.9,40.39   c40.69,4.49,75.51,1.36,114.71-2.17c24.54-2.21,46.46-5.49,65.72-9.22c17.02-39.18,39.94-74.63,75.23-109.91   c28.36-28.36,74.24-49.7,104.32-48.59c14.75,0.55,22.81,6.41,26.97,11.24c9.37,10.87,12.34,24.76,8.6,40.18   c-8.78,36.16-52.61,74.88-111.65,98.65c-12.55,5.05-42.33,17.04-88.45,26.87c-9,22.53-16.3,46.68-23.26,73.44   c-0.83,3.2-1.61,6.46-2.34,9.76c5.99,0.91,11.69,2.35,17.02,4.37c20.23,7.7,32.71,23.18,36.1,44.78   c3.73,23.79-4.41,42.8-23.55,54.97c-10.57,6.72-24.11,10.94-39.22,13.17c0.59,44.34,4.7,79.78,5.8,85.16l-20.64,4.22   c-1.2-5.84-5.54-41.95-6.25-87.54c-14.57,0.5-29.92-0.42-45.04-2.37c13.82,59.7,9.24,113.5-13.81,149.5   c-16.1,25.15-40.03,39.49-69.22,41.49C239.08,621.82,236.64,621.9,234.27,621.9z M236.99,405.72   c-26.15,30-39.76,58.66-45.16,70.03l-0.42,0.88c-17.54,36.89-18.18,78.05-1.6,102.4c10.81,15.88,27.75,23.14,50.36,21.6   c22.59-1.55,40.39-12.26,52.92-31.84c20.75-32.41,23.63-84.68,8.89-141.86C276.25,421.81,252.79,414.07,236.99,405.72z    M318.67,408.26c17.08,2.72,34.73,4.16,50.95,3.65c0.28-25.21,1.85-52.17,5.69-77.88c-24.22,1.58-52.17,9.94-75.59,21.44   c2.73,7.03,5.05,13.29,7.05,18.66c1.08,2.92,2.06,5.55,2.94,7.87C313.07,390.81,316.05,399.58,318.67,408.26z M396.54,334.63   c-3.82,24.58-5.43,50.72-5.78,75.29c10.91-1.84,20.5-4.97,27.91-9.69c12.01-7.64,16.47-18.42,14.04-33.93   c-2.21-14.08-9.66-23.36-22.78-28.35C405.86,336.4,401.36,335.31,396.54,334.63z M252.14,389.7   c11.24,5.16,26.29,10.06,42.95,13.95c-1.57-4.7-3.26-9.43-5.06-14.17c-0.9-2.37-1.9-5.05-3-8.03c-1.69-4.56-3.63-9.78-5.86-15.58   c-4.55,2.92-8.76,5.95-12.52,9.05C262.75,379.75,257.26,384.7,252.14,389.7z M245.22,246.09c21.41,34.32,36.18,65.19,46.62,89.89   c26.37-12.76,58.45-22.45,87.27-23.28c0.99-4.71,2.07-9.34,3.25-13.88c5.85-22.5,12.06-43.52,19.4-63.48   c-16.54,2.85-34.76,5.32-54.61,7.1C312.21,245.59,280.63,248.44,245.22,246.09z M72.36,103.45c-10.5,0-17.03,2.41-19.41,7.17   c-4.65,9.31,3.01,29.94,13.09,43.38c31.81,42.41,110.46,60.47,135.66,65.28c-5.49-7.53-11.32-15.17-17.49-22.88   C115.02,109.92,95,103.45,72.36,103.45z M588.13,74.76c-24.32,0-63.65,19.1-87.02,42.46c-29.15,29.15-49.22,57.94-64.53,89.45   c35.86-8.66,59.36-18.13,70-22.41c59.88-24.11,93.32-60.48,99.05-84.08c2.13-8.78,0.8-15.79-4.08-21.45   c-2.58-2.99-7.83-3.8-11.79-3.94C589.23,74.77,588.69,74.76,588.13,74.76z"></path>	</g>	<g>		<g>			<defs>				<circle id="SVGID_00000164510926276695847380000008769293139265425808_" cx="91.32" cy="261.45" r="28.44"></circle>			</defs>			<clipPath id="SVGID_00000103248901464946085580000015560695610543003776_">				<use xlink:href="#SVGID_00000164510926276695847380000008769293139265425808_" style="overflow:visible;"></use>			</clipPath>			<path style="clip-path:url(#SVGID_00000103248901464946085580000015560695610543003776_);fill:#F7A904;" d="M62.88,233.01v56.88    V233.01z"></path>							<rect x="62.88" y="233.01" style="clip-path:url(#SVGID_00000103248901464946085580000015560695610543003776_);fill:#F7A904;" width="1.96" height="56.88"></rect>							<rect x="64.84" y="233.01" style="clip-path:url(#SVGID_00000103248901464946085580000015560695610543003776_);fill:#F7AA04;" width="1.96" height="56.88"></rect>							<rect x="66.8" y="233.01" style="clip-path:url(#SVGID_00000103248901464946085580000015560695610543003776_);fill:#F7AB04;" width="1.96" height="56.88"></rect>							<rect x="68.76" y="233.01" style="clip-path:url(#SVGID_00000103248901464946085580000015560695610543003776_);fill:#F7AC04;" width="1.96" height="56.88"></rect>							<rect x="70.72" y="233.01" style="clip-path:url(#SVGID_00000103248901464946085580000015560695610543003776_);fill:#F8AE03;" width="1.96" height="56.88"></rect>							<rect x="72.68" y="233.01" style="clip-path:url(#SVGID_00000103248901464946085580000015560695610543003776_);fill:#F8AF03;" width="1.96" height="56.88"></rect>							<rect x="74.64" y="233.01" style="clip-path:url(#SVGID_00000103248901464946085580000015560695610543003776_);fill:#F8B003;" width="1.96" height="56.88"></rect>							<rect x="76.61" y="233.01" style="clip-path:url(#SVGID_00000103248901464946085580000015560695610543003776_);fill:#F8B103;" width="1.96" height="56.88"></rect>							<rect x="78.57" y="233.01" style="clip-path:url(#SVGID_00000103248901464946085580000015560695610543003776_);fill:#F8B203;" width="1.96" height="56.88"></rect>							<rect x="80.53" y="233.01" style="clip-path:url(#SVGID_00000103248901464946085580000015560695610543003776_);fill:#F8B303;" width="1.96" height="56.88"></rect>							<rect x="82.49" y="233.01" style="clip-path:url(#SVGID_00000103248901464946085580000015560695610543003776_);fill:#F9B402;" width="1.96" height="56.88"></rect>							<rect x="84.45" y="233.01" style="clip-path:url(#SVGID_00000103248901464946085580000015560695610543003776_);fill:#F9B502;" width="1.96" height="56.88"></rect>							<rect x="86.41" y="233.01" style="clip-path:url(#SVGID_00000103248901464946085580000015560695610543003776_);fill:#F9B602;" width="1.96" height="56.88"></rect>							<rect x="88.37" y="233.01" style="clip-path:url(#SVGID_00000103248901464946085580000015560695610543003776_);fill:#F9B702;" width="1.96" height="56.88"></rect>							<rect x="90.33" y="233.01" style="clip-path:url(#SVGID_00000103248901464946085580000015560695610543003776_);fill:#F9B802;" width="1.96" height="56.88"></rect>							<rect x="92.3" y="233.01" style="clip-path:url(#SVGID_00000103248901464946085580000015560695610543003776_);fill:#F9BA02;" width="1.96" height="56.88"></rect>							<rect x="94.26" y="233.01" style="clip-path:url(#SVGID_00000103248901464946085580000015560695610543003776_);fill:#F9BB02;" width="1.96" height="56.88"></rect>							<rect x="96.22" y="233.01" style="clip-path:url(#SVGID_00000103248901464946085580000015560695610543003776_);fill:#FABC01;" width="1.96" height="56.88"></rect>							<rect x="98.18" y="233.01" style="clip-path:url(#SVGID_00000103248901464946085580000015560695610543003776_);fill:#FABD01;" width="1.96" height="56.88"></rect>							<rect x="100.14" y="233.01" style="clip-path:url(#SVGID_00000103248901464946085580000015560695610543003776_);fill:#FABE01;" width="1.96" height="56.88"></rect>							<rect x="102.1" y="233.01" style="clip-path:url(#SVGID_00000103248901464946085580000015560695610543003776_);fill:#FABF01;" width="1.96" height="56.88"></rect>							<rect x="104.06" y="233.01" style="clip-path:url(#SVGID_00000103248901464946085580000015560695610543003776_);fill:#FAC001;" width="1.96" height="56.88"></rect>							<rect x="106.02" y="233.01" style="clip-path:url(#SVGID_00000103248901464946085580000015560695610543003776_);fill:#FAC101;" width="1.96" height="56.88"></rect>							<rect x="107.99" y="233.01" style="clip-path:url(#SVGID_00000103248901464946085580000015560695610543003776_);fill:#FAC201;" width="1.96" height="56.88"></rect>							<rect x="109.95" y="233.01" style="clip-path:url(#SVGID_00000103248901464946085580000015560695610543003776_);fill:#FBC300;" width="1.96" height="56.88"></rect>							<rect x="111.91" y="233.01" style="clip-path:url(#SVGID_00000103248901464946085580000015560695610543003776_);fill:#FBC400;" width="1.96" height="56.88"></rect>							<rect x="113.87" y="233.01" style="clip-path:url(#SVGID_00000103248901464946085580000015560695610543003776_);fill:#FBC400;" width="1.96" height="56.88"></rect>							<rect x="115.83" y="233.01" style="clip-path:url(#SVGID_00000103248901464946085580000015560695610543003776_);fill:#FBC500;" width="1.96" height="56.88"></rect>							<rect x="117.79" y="233.01" style="clip-path:url(#SVGID_00000103248901464946085580000015560695610543003776_);fill:#FBC600;" width="1.96" height="56.88"></rect>			<path style="clip-path:url(#SVGID_00000103248901464946085580000015560695610543003776_);fill:#FBC600;" d="M119.75,289.89    v-56.88V289.89z"></path>		</g>	</g>	<g>		<g>			<defs>				<circle id="SVGID_00000013886709999505237730000014323816303101660812_" cx="392.55" cy="539.51" r="28.44"></circle>			</defs>			<clipPath id="SVGID_00000036960824276049239170000000186255441595196604_">				<use xlink:href="#SVGID_00000013886709999505237730000014323816303101660812_" style="overflow:visible;"></use>			</clipPath>			<polygon style="clip-path:url(#SVGID_00000036960824276049239170000000186255441595196604_);fill:#F7AA17;" points="    380.77,511.08 364.12,527.73 364.12,511.08    "></polygon>			<polygon style="clip-path:url(#SVGID_00000036960824276049239170000000186255441595196604_);fill:#F7AA17;" points="    383.46,511.08 364.12,530.42 364.12,527.73 380.77,511.08    "></polygon>			<polygon style="clip-path:url(#SVGID_00000036960824276049239170000000186255441595196604_);fill:#F7A918;" points="    386.14,511.08 364.12,533.1 364.12,530.42 383.46,511.08    "></polygon>			<polygon style="clip-path:url(#SVGID_00000036960824276049239170000000186255441595196604_);fill:#F7A819;" points="    388.82,511.08 364.12,535.78 364.12,533.1 386.14,511.08    "></polygon>			<polygon style="clip-path:url(#SVGID_00000036960824276049239170000000186255441595196604_);fill:#F6A71A;" points="    391.5,511.08 364.12,538.46 364.12,535.78 388.82,511.08    "></polygon>			<polygon style="clip-path:url(#SVGID_00000036960824276049239170000000186255441595196604_);fill:#F6A61B;" points="    394.18,511.08 364.12,541.14 364.12,538.46 391.5,511.08    "></polygon>			<polygon style="clip-path:url(#SVGID_00000036960824276049239170000000186255441595196604_);fill:#F6A41C;" points="    396.86,511.08 364.12,543.82 364.12,541.14 394.18,511.08    "></polygon>			<polygon style="clip-path:url(#SVGID_00000036960824276049239170000000186255441595196604_);fill:#F6A31D;" points="    399.54,511.08 364.12,546.5 364.12,543.82 396.86,511.08    "></polygon>			<polygon style="clip-path:url(#SVGID_00000036960824276049239170000000186255441595196604_);fill:#F6A21D;" points="    402.22,511.08 364.12,549.18 364.12,546.5 399.54,511.08    "></polygon>			<polygon style="clip-path:url(#SVGID_00000036960824276049239170000000186255441595196604_);fill:#F6A11E;" points="    404.91,511.08 364.12,551.87 364.12,549.18 402.22,511.08    "></polygon>			<polygon style="clip-path:url(#SVGID_00000036960824276049239170000000186255441595196604_);fill:#F5A01F;" points="    407.59,511.08 364.12,554.55 364.12,551.87 404.91,511.08    "></polygon>			<polygon style="clip-path:url(#SVGID_00000036960824276049239170000000186255441595196604_);fill:#F59F20;" points="    410.27,511.08 364.12,557.23 364.12,554.55 407.59,511.08    "></polygon>			<polygon style="clip-path:url(#SVGID_00000036960824276049239170000000186255441595196604_);fill:#F59E21;" points="    412.95,511.08 364.12,559.91 364.12,557.23 410.27,511.08    "></polygon>			<polygon style="clip-path:url(#SVGID_00000036960824276049239170000000186255441595196604_);fill:#F59D22;" points="    414.22,511.08 414.92,511.78 364.82,561.88 364.12,561.18 364.12,559.91 412.95,511.08    "></polygon>							<rect x="355.12" y="536.55" transform="matrix(0.7071 -0.7071 0.7071 0.7071 -265.6844 433.5868)" style="clip-path:url(#SVGID_00000036960824276049239170000000186255441595196604_);fill:#F59C23;" width="70.86" height="1.9"></rect>							<rect x="356.46" y="537.9" transform="matrix(0.7071 -0.7071 0.7071 0.7071 -266.2397 434.9274)" style="clip-path:url(#SVGID_00000036960824276049239170000000186255441595196604_);fill:#F49B24;" width="70.86" height="1.9"></rect>							<rect x="357.8" y="539.24" transform="matrix(0.7071 -0.7071 0.7071 0.7071 -266.795 436.268)" style="clip-path:url(#SVGID_00000036960824276049239170000000186255441595196604_);fill:#F49A25;" width="70.86" height="1.9"></rect>							<rect x="359.14" y="540.58" transform="matrix(0.7071 -0.7071 0.7071 0.7071 -267.3503 437.6086)" style="clip-path:url(#SVGID_00000036960824276049239170000000186255441595196604_);fill:#F49926;" width="70.86" height="1.9"></rect>			<polygon style="clip-path:url(#SVGID_00000036960824276049239170000000186255441595196604_);fill:#F49726;" points="    420.29,517.14 420.99,517.85 420.99,519.12 372.16,567.95 370.89,567.95 370.18,567.25    "></polygon>			<polygon style="clip-path:url(#SVGID_00000036960824276049239170000000186255441595196604_);fill:#F49627;" points="    420.99,521.8 374.84,567.95 372.16,567.95 420.99,519.12    "></polygon>			<polygon style="clip-path:url(#SVGID_00000036960824276049239170000000186255441595196604_);fill:#F49528;" points="    420.99,524.48 377.52,567.95 374.84,567.95 420.99,521.8    "></polygon>			<polygon style="clip-path:url(#SVGID_00000036960824276049239170000000186255441595196604_);fill:#F39429;" points="    420.99,527.16 380.2,567.95 377.52,567.95 420.99,524.48    "></polygon>			<polygon style="clip-path:url(#SVGID_00000036960824276049239170000000186255441595196604_);fill:#F3932A;" points="    420.99,529.84 382.88,567.95 380.2,567.95 420.99,527.16    "></polygon>			<polygon style="clip-path:url(#SVGID_00000036960824276049239170000000186255441595196604_);fill:#F3922B;" points="    420.99,532.52 385.57,567.95 382.88,567.95 420.99,529.84    "></polygon>			<polygon style="clip-path:url(#SVGID_00000036960824276049239170000000186255441595196604_);fill:#F3912C;" points="    420.99,535.21 388.25,567.95 385.57,567.95 420.99,532.52    "></polygon>			<polygon style="clip-path:url(#SVGID_00000036960824276049239170000000186255441595196604_);fill:#F3902C;" points="    420.99,537.89 390.93,567.95 388.25,567.95 420.99,535.21    "></polygon>			<polygon style="clip-path:url(#SVGID_00000036960824276049239170000000186255441595196604_);fill:#F38F2D;" points="    420.99,540.57 393.61,567.95 390.93,567.95 420.99,537.89    "></polygon>			<polygon style="clip-path:url(#SVGID_00000036960824276049239170000000186255441595196604_);fill:#F28F2E;" points="    420.99,543.25 396.29,567.95 393.61,567.95 420.99,540.57    "></polygon>			<polygon style="clip-path:url(#SVGID_00000036960824276049239170000000186255441595196604_);fill:#F28E2F;" points="    420.99,545.93 398.97,567.95 396.29,567.95 420.99,543.25    "></polygon>			<polygon style="clip-path:url(#SVGID_00000036960824276049239170000000186255441595196604_);fill:#F28D2F;" points="    420.99,548.61 401.65,567.95 398.97,567.95 420.99,545.93    "></polygon>			<polygon style="clip-path:url(#SVGID_00000036960824276049239170000000186255441595196604_);fill:#F28C30;" points="    420.99,551.29 404.33,567.95 401.65,567.95 420.99,548.61    "></polygon>			<polygon style="clip-path:url(#SVGID_00000036960824276049239170000000186255441595196604_);fill:#F28C30;" points="    404.33,567.95 420.99,551.29 420.99,567.95    "></polygon>		</g>	</g>	<g>		<g>			<defs>				<circle id="SVGID_00000003817286786594592650000009958622623285544605_" cx="428.37" cy="52.9" r="28.44"></circle>			</defs>			<clipPath id="SVGID_00000183949740076876434560000016008415478438347159_">				<use xlink:href="#SVGID_00000003817286786594592650000009958622623285544605_" style="overflow:visible;"></use>			</clipPath>			<path style="clip-path:url(#SVGID_00000183949740076876434560000016008415478438347159_);fill:#F6A918;" d="M399.93,24.46v56.88    V24.46z"></path>							<rect x="399.93" y="24.46" style="clip-path:url(#SVGID_00000183949740076876434560000016008415478438347159_);fill:#F6A918;" width="1.96" height="56.88"></rect>							<rect x="401.89" y="24.46" style="clip-path:url(#SVGID_00000183949740076876434560000016008415478438347159_);fill:#F6A819;" width="1.96" height="56.88"></rect>							<rect x="403.85" y="24.46" style="clip-path:url(#SVGID_00000183949740076876434560000016008415478438347159_);fill:#F6A71A;" width="1.96" height="56.88"></rect>							<rect x="405.81" y="24.46" style="clip-path:url(#SVGID_00000183949740076876434560000016008415478438347159_);fill:#F6A61B;" width="1.96" height="56.88"></rect>							<rect x="407.77" y="24.46" style="clip-path:url(#SVGID_00000183949740076876434560000016008415478438347159_);fill:#F5A51C;" width="1.96" height="56.88"></rect>							<rect x="409.73" y="24.46" style="clip-path:url(#SVGID_00000183949740076876434560000016008415478438347159_);fill:#F5A31D;" width="1.96" height="56.88"></rect>							<rect x="411.7" y="24.46" style="clip-path:url(#SVGID_00000183949740076876434560000016008415478438347159_);fill:#F5A21E;" width="1.96" height="56.88"></rect>							<rect x="413.66" y="24.46" style="clip-path:url(#SVGID_00000183949740076876434560000016008415478438347159_);fill:#F5A11E;" width="1.96" height="56.88"></rect>							<rect x="415.62" y="24.46" style="clip-path:url(#SVGID_00000183949740076876434560000016008415478438347159_);fill:#F5A01F;" width="1.96" height="56.88"></rect>							<rect x="417.58" y="24.46" style="clip-path:url(#SVGID_00000183949740076876434560000016008415478438347159_);fill:#F59F20;" width="1.96" height="56.88"></rect>							<rect x="419.54" y="24.46" style="clip-path:url(#SVGID_00000183949740076876434560000016008415478438347159_);fill:#F49E21;" width="1.96" height="56.88"></rect>							<rect x="421.5" y="24.46" style="clip-path:url(#SVGID_00000183949740076876434560000016008415478438347159_);fill:#F49D22;" width="1.96" height="56.88"></rect>							<rect x="423.46" y="24.46" style="clip-path:url(#SVGID_00000183949740076876434560000016008415478438347159_);fill:#F49C23;" width="1.96" height="56.88"></rect>							<rect x="425.42" y="24.46" style="clip-path:url(#SVGID_00000183949740076876434560000016008415478438347159_);fill:#F49B24;" width="1.96" height="56.88"></rect>							<rect x="427.39" y="24.46" style="clip-path:url(#SVGID_00000183949740076876434560000016008415478438347159_);fill:#F49A25;" width="1.96" height="56.88"></rect>							<rect x="429.35" y="24.46" style="clip-path:url(#SVGID_00000183949740076876434560000016008415478438347159_);fill:#F49926;" width="1.96" height="56.88"></rect>							<rect x="431.31" y="24.46" style="clip-path:url(#SVGID_00000183949740076876434560000016008415478438347159_);fill:#F49826;" width="1.96" height="56.88"></rect>							<rect x="433.27" y="24.46" style="clip-path:url(#SVGID_00000183949740076876434560000016008415478438347159_);fill:#F39627;" width="1.96" height="56.88"></rect>							<rect x="435.23" y="24.46" style="clip-path:url(#SVGID_00000183949740076876434560000016008415478438347159_);fill:#F39528;" width="1.96" height="56.88"></rect>							<rect x="437.19" y="24.46" style="clip-path:url(#SVGID_00000183949740076876434560000016008415478438347159_);fill:#F39429;" width="1.96" height="56.88"></rect>							<rect x="439.15" y="24.46" style="clip-path:url(#SVGID_00000183949740076876434560000016008415478438347159_);fill:#F3932A;" width="1.96" height="56.88"></rect>							<rect x="441.11" y="24.46" style="clip-path:url(#SVGID_00000183949740076876434560000016008415478438347159_);fill:#F3922B;" width="1.96" height="56.88"></rect>							<rect x="443.08" y="24.46" style="clip-path:url(#SVGID_00000183949740076876434560000016008415478438347159_);fill:#F3912C;" width="1.96" height="56.88"></rect>							<rect x="445.04" y="24.46" style="clip-path:url(#SVGID_00000183949740076876434560000016008415478438347159_);fill:#F3902C;" width="1.96" height="56.88"></rect>							<rect x="447" y="24.46" style="clip-path:url(#SVGID_00000183949740076876434560000016008415478438347159_);fill:#F28F2D;" width="1.96" height="56.88"></rect>							<rect x="448.96" y="24.46" style="clip-path:url(#SVGID_00000183949740076876434560000016008415478438347159_);fill:#F28F2E;" width="1.96" height="56.88"></rect>							<rect x="450.92" y="24.46" style="clip-path:url(#SVGID_00000183949740076876434560000016008415478438347159_);fill:#F28E2F;" width="1.96" height="56.88"></rect>							<rect x="452.88" y="24.46" style="clip-path:url(#SVGID_00000183949740076876434560000016008415478438347159_);fill:#F28D2F;" width="1.96" height="56.88"></rect>							<rect x="454.84" y="24.46" style="clip-path:url(#SVGID_00000183949740076876434560000016008415478438347159_);fill:#F28C30;" width="1.96" height="56.88"></rect>			<path style="clip-path:url(#SVGID_00000183949740076876434560000016008415478438347159_);fill:#F28C30;" d="M456.8,81.34V24.46    V81.34z"></path>		</g>	</g></g><g>	<g>		<g>			<path class="st89" d="M851.79,319.73h-96.9c-15.12,0-27.39-12.26-27.39-27.39V129.02c0-15.1,12.22-27.35,27.32-27.39l96.9-0.23    c15.15-0.04,27.45,12.24,27.45,27.39v35.01c0,1.16-0.94,2.11-2.11,2.11h-31.6c-1.16,0-2.11-0.94-2.11-2.11v-24.45    c0-1.17-0.95-2.11-2.11-2.11l-75.84,0.18c-1.16,0-2.1,0.95-2.1,2.11v142.27c0,1.16,0.94,2.11,2.11,2.11h75.84    c1.16,0,2.11-0.94,2.11-2.11v-24.16c0-1.16,0.94-2.11,2.11-2.11h31.6c1.16,0,2.11,0.94,2.11,2.11v34.69    C879.17,307.46,866.91,319.73,851.79,319.73z"></path>		</g>		<g>			<path class="st89" d="M941.31,320.74h-31.6c-1.16,0-2.11-0.94-2.11-2.11V178.82c0-15.08,12.19-27.32,27.27-27.39l60.08-0.26    c1.16,0,2.11,0.93,2.12,2.1l0.14,31.6c0.01,1.16-0.93,2.11-2.1,2.12l-49.59,0.21c-1.16,0-2.1,0.95-2.1,2.11v129.33    C943.42,319.8,942.48,320.74,941.31,320.74z"></path>		</g>		<g>			<path class="st89" d="M1333.14,184.87v-31.6c0-1.16-0.94-2.11-2.11-2.11h-23.17c-1.16,0-2.11-0.94-2.11-2.11V95.34    c0-1.16-0.94-2.11-2.11-2.11h-31.6c-1.16,0-2.11,0.94-2.11,2.11v197c0,15.12,12.26,27.39,27.39,27.39h33.71    c1.16,0,2.11-0.94,2.11-2.11v-31.6c0-1.16-0.94-2.11-2.11-2.11h-23.17c-1.16,0-2.11-0.94-2.11-2.11v-92.72    c0-1.16,0.94-2.11,2.11-2.11h23.17C1332.19,186.98,1333.14,186.03,1333.14,184.87z"></path>		</g>		<g>			<path class="st89" d="M1497.3,265.54l-34.85-112.89c-0.27-0.88-1.09-1.49-2.01-1.49h-33.01c-1.42,0-2.43,1.37-2.01,2.73    l51,165.37c0.27,0.88,1.09,1.49,2.01,1.49h41.66c0.92,0,1.74-0.6,2.01-1.48l51.33-165.37c0.42-1.36-0.59-2.73-2.01-2.73h-32.88    c-0.92,0-1.74,0.6-2.01,1.48l-35.2,112.9C1500.71,267.52,1497.91,267.52,1497.3,265.54z"></path>		</g>		<g>			<g>				<path class="st89" d="M1207.14,320.24l-82.02-0.03c-15.12-0.01-27.38-12.26-27.38-27.39v-51.61c0-15.12,12.26-27.39,27.39-27.39     h71.49c1.16,0,2.11-0.94,2.11-2.11v-22.12c0-1.16-0.94-2.11-2.11-2.11h-97.82c-1.16,0-2.11-0.94-2.11-2.11v-31.6     c0-1.16,0.94-2.11,2.11-2.11h108.35c15.12,0,27.39,12.26,27.39,27.39v113.78C1234.53,307.99,1222.27,320.25,1207.14,320.24z      M1135.66,284.41l60.95,0.02c1.16,0,2.11-0.94,2.11-2.11v-30.57c0-1.16-0.94-2.11-2.11-2.11h-60.95c-1.16,0-2.11,0.94-2.11,2.11     v30.55C1133.56,283.47,1134.5,284.41,1135.66,284.41z"></path>			</g>		</g>		<g>			<g>				<path class="st89" d="M1063.1,320.75l-31.6-0.01c-1.16,0-2.11-0.94-2.11-2.11l0.03-164.31c0-1.16,0.94-2.11,2.11-2.11l31.6,0.01     c1.16,0,2.11,0.94,2.11,2.11l-0.03,164.31C1065.21,319.8,1064.27,320.75,1063.1,320.75z"></path>			</g>		</g>		<g>			<g>				<path class="st89" d="M1029.43,132.52l-0.03-27.66c0-1.16,0.94-2.11,2.1-2.11l31.6-0.03c1.16,0,2.11,0.94,2.11,2.1l0.03,27.66     c0,1.16-0.94,2.11-2.1,2.11l-31.6,0.03C1030.38,134.63,1029.43,133.68,1029.43,132.52z"></path>			</g>		</g>		<g>			<g>				<path class="st89" d="M1699.75,320.45l-82.02-0.03c-15.12-0.01-27.38-12.26-27.38-27.39v-51.61c0-15.12,12.26-27.39,27.39-27.39     h71.49c1.16,0,2.11-0.94,2.11-2.11v-22.12c0-1.16-0.94-2.11-2.11-2.11h-97.82c-1.16,0-2.11-0.94-2.11-2.11V154     c0-1.16,0.94-2.11,2.11-2.11h108.35c15.12,0,27.39,12.26,27.39,27.39v113.78C1727.15,308.19,1714.88,320.45,1699.75,320.45z      M1628.28,284.61l60.95,0.02c1.16,0,2.11-0.94,2.11-2.11v-30.57c0-1.16-0.94-2.11-2.11-2.11h-60.95c-1.16,0-2.11,0.94-2.11,2.11     v30.55C1626.17,283.67,1627.11,284.61,1628.28,284.61z"></path>			</g>		</g>		<g>			<g>				<path class="st89" d="M1404.37,319.91l-31.6-0.01c-1.16,0-2.11-0.94-2.11-2.11l0.03-164.31c0-1.16,0.94-2.11,2.11-2.11     l31.6,0.01c1.16,0,2.11,0.94,2.11,2.11l-0.03,164.31C1406.48,318.97,1405.53,319.91,1404.37,319.91z"></path>			</g>		</g>		<g>			<g>				<path class="st89" d="M1370.7,131.69l-0.03-27.66c0-1.16,0.94-2.11,2.1-2.11l31.6-0.04c1.16,0,2.11,0.94,2.11,2.1l0.03,27.66     c0,1.16-0.94,2.11-2.1,2.11l-31.6,0.04C1371.64,133.79,1370.7,132.85,1370.7,131.69z"></path>			</g>		</g>	</g>	<g>		<g>			<g>				<path class="st89" d="M1048.14,525.15c-6.01,0.13-11.36-1.37-16.06-4.1c-4.7-2.74-8.38-6.69-11.04-11.85     c-2.66-5.16-3.98-9.19-3.98-16.34c0-7.15,1.33-13.31,3.98-18.47c2.66-5.16,6.27-9.11,10.84-11.85c4.57-2.73,9.73-4.1,15.48-4.1     c5.92,0,10.97,1.32,15.15,3.97c4.18,2.65,7.4,6.33,9.67,11.06c2.26,4.72,3.4,10.18,3.4,16.35c0,0.79-0.02,1.57-0.07,2.32     c-0.04,0.75-0.11,1.43-0.2,2.05h-54.2v-5.96h51.33l-3.27,0.93c-0.09-7.59-2.07-13.64-5.94-18.14c-3.88-4.5-9.21-6.75-16-6.75     c-4.7,0-8.84,1.12-12.41,3.38c-3.57,2.25-6.36,5.52-8.36,9.8c-2,4.28-3,9.42-3,15.42c0,5.91,1.02,8.9,3.07,13.22     c2.04,4.33,4.92,7.61,8.62,9.86c3.7,2.25,7.99,3.36,12.86,3.38c10.12,0.03,18.4-2.56,19.76-3.28l-0.03,6.34     C1067.83,522.92,1058.13,524.93,1048.14,525.15z"></path>			</g>		</g>		<g>			<g>				<path class="st89" d="M1094.25,525.04v-65.3h5.88l0.52,16.33l-1.05-0.91c1.22-3.57,3.05-6.62,5.49-9.14     c2.44-2.52,5.35-4.42,8.75-5.68c3.4-1.26,7.05-1.89,10.97-1.89c4.88,0,9.19,0.92,12.93,2.74c3.74,1.83,6.68,4.53,8.82,8.1     c2.13,3.57,3.2,8.05,3.2,13.45v42.32h-6.53v-40.23c0-7.14-1.76-12.36-5.29-15.67c-3.53-3.31-8.12-4.96-13.78-4.96     c-4.09,0-7.9,0.94-11.43,2.81c-3.53,1.87-6.4,4.59-8.62,8.16c-2.22,3.57-3.33,7.92-3.33,13.06v36.83H1094.25z"></path>			</g>		</g>		<g>			<g>				<path class="st89" d="M1240.88,525.04v-65.3h5.49l0.78,13.58c1.65-4.53,4.31-8.14,7.97-10.84c3.66-2.7,6.93-4.05,12.07-4.05     c3.57,0,6.29,1.44,7.24,2.22l-1.57,5.75c-0.96-0.61-3.86-1.96-6.12-1.96c-3.31,0-6.44,1.02-9.4,3.07     c-2.96,2.05-5.35,4.88-7.18,8.49c-1.83,3.61-2.74,7.77-2.74,12.47v36.57H1240.88z"></path>			</g>		</g>		<g>			<g>				<path class="st89" d="M1320.94,518.38c6.44,0,11.49,1.35,15.15,4.05c3.66,2.7,5.48,6.31,5.48,10.84c0,4-1.33,7.49-3.98,10.45     c-2.66,2.96-6.29,5.27-10.91,6.92c-4.62,1.65-9.88,2.48-15.8,2.48c-9.84,0-17.37-1.68-22.6-5.03c-5.22-3.35-7.84-7.56-7.84-12.6     c0-3.66,1.33-6.84,3.98-9.54c2.65-2.7,6.55-4.31,11.69-4.83l-0.52,1.18c-2.79-0.78-5.25-2.09-7.38-3.92     c-2.13-1.83-3.2-4.44-3.2-7.84c0-3.66,1.37-6.64,4.11-8.95c2.74-2.31,6.38-3.64,10.91-3.98l6.92,2.35h-2.74     c-4.01,0.26-7.21,1.24-9.6,2.94c-2.4,1.7-3.59,3.9-3.59,6.6c0,2.96,1.15,5.18,3.46,6.66c2.31,1.48,5.24,2.22,8.82,2.22H1320.94z      M1309.97,458.43c5.14,0,9.68,0.89,13.65,2.68c3.96,1.79,7.03,4.27,9.21,7.44c2.17,3.18,3.26,6.9,3.26,11.17     c0,4.18-1.09,7.9-3.26,11.17c-2.18,3.26-5.25,5.79-9.21,7.57c-3.96,1.79-8.51,2.68-13.65,2.68c-8.27,0-14.74-1.98-19.4-5.94     c-4.66-3.96-6.99-9.12-6.99-15.48c0-4.27,1.11-7.99,3.33-11.17c2.22-3.18,5.31-5.66,9.27-7.44     C1300.16,459.33,1304.75,458.43,1309.97,458.43z M1310.89,547.64c5.14,0,9.53-0.61,13.19-1.83c3.66-1.22,6.47-2.85,8.42-4.9     c1.96-2.05,2.94-4.33,2.94-6.86c0-3.05-1.33-5.49-3.98-7.32c-2.66-1.83-6.68-2.74-12.08-2.74h-18.55     c-4.09,0-7.49,0.96-10.19,2.87c-2.7,1.91-4.05,4.48-4.05,7.71c0,3.92,2.15,7.07,6.46,9.47     C1297.37,546.44,1303.31,547.64,1310.89,547.64z M1309.97,463.79c-5.75,0-10.45,1.46-14.11,4.38     c-3.66,2.92-5.49,6.77-5.49,11.56s1.83,8.66,5.49,11.62c3.66,2.96,8.36,4.44,14.11,4.44s10.42-1.48,14.04-4.44     c3.61-2.96,5.42-6.83,5.42-11.62s-1.81-8.64-5.42-11.56C1320.4,465.25,1315.72,463.79,1309.97,463.79z M1344.72,461.97     l-0.76,5.91c-0.08-0.03-0.16-0.07-0.24-0.1c-0.08-0.03-0.2-0.08-0.36-0.15c-3.94-1.64-7.52-2.14-10.38-0.72     c-2.74,1.37-3.12,2.2-3.39,2.73l-3.8-2.98c0.12-0.28,0.37-1.44,2.59-3.16c2.22-1.71,4.72-2.73,7.49-3.03     c2.77-0.31,5.56,0.12,8.37,1.3c0.16,0.07,0.26,0.11,0.3,0.12C1344.58,461.91,1344.64,461.94,1344.72,461.97z"></path>			</g>		</g>		<g>			<g>				<path class="st89" d="M1367.62,458.43v66.52h-6.53v-60.12h-6.89v-6.4H1367.62z"></path>			</g>		</g>		<g>			<g>				<path class="st89" d="M1438.98,519.86c-5.75,3.14-12.28,5.09-22.73,5.09c-15.28,0-27.03-6.79-27.03-21.16v-0.65     c0-10.17,6.92-14.92,17.63-17.18c6.01-1.27,12.23-1.23,18.26-0.04l7.47,1.47v-5.78c0-12.41-8.1-17.66-19.33-17.29     c-5.82,0.19-9.51,1.43-14.6,2.63l-2.74-5.22c6.54-2.43,11.98-3.18,17.65-3.28c14.1-0.26,25.42,6.71,25.42,23.56V519.86z      M1432.58,493.14l-7.59-1.56c-5.65-1.16-11.48-1.37-17.15-0.31c-7.59,1.43-12.22,4.33-12.22,11.87v0.65     c0,10.45,8.49,15.15,20.77,15.15c7.18,0,12.41-1.44,16.19-3V493.14z"></path>			</g>		</g>		<g>			<g>				<path class="st89" d="M1196.47,525.15c-6.01,0.13-11.36-1.37-16.06-4.1c-4.7-2.74-8.38-6.69-11.04-11.85     c-2.66-5.16-3.98-9.19-3.98-16.34c0-7.15,1.33-13.31,3.98-18.47c2.66-5.16,6.27-9.11,10.84-11.85c4.57-2.73,9.73-4.1,15.48-4.1     c5.92,0,10.97,1.32,15.15,3.97c4.18,2.65,7.4,6.33,9.67,11.06c2.26,4.72,3.4,10.18,3.4,16.35c0,0.79-0.02,1.57-0.07,2.32     c-0.04,0.75-0.11,1.43-0.2,2.05h-54.2v-5.96h51.33l-3.27,0.93c-0.09-7.59-2.07-13.64-5.94-18.14c-3.88-4.5-9.21-6.75-16-6.75     c-4.7,0-8.84,1.12-12.41,3.38c-3.57,2.25-6.36,5.52-8.36,9.8c-2,4.28-3,9.42-3,15.42c0,5.91,1.02,8.9,3.07,13.22     c2.04,4.33,4.92,7.61,8.62,9.86c3.7,2.25,7.99,3.36,12.86,3.38c10.12,0.03,18.4-2.56,19.76-3.28l-0.03,6.34     C1216.16,522.92,1206.46,524.93,1196.47,525.15z"></path>			</g>		</g>		<g>			<g>				<rect x="1357.09" y="431.34" class="st89" width="10.53" height="10.53"></rect>			</g>		</g>	</g></g></svg>